<svg width="140" height="24" viewBox="0 0 140 24" fill="none" xmlns="http://www.w3.org/2000/svg">
<path d="M32.0322 18H33.5676V13.1369C33.5676 12.074 34.3122 11.3345 35.1852 11.3345C36.0377 11.3345 36.6282 11.8994 36.6282 12.7569V18H38.1585V12.9726C38.1585 12.0226 38.7388 11.3345 39.7401 11.3345C40.5515 11.3345 41.2191 11.7864 41.2191 12.8545V18H42.7545V12.7107C42.7545 10.9083 41.748 10.0096 40.3204 10.0096C39.1855 10.0096 38.3331 10.5539 37.9531 11.3961H37.8709C37.5269 10.5334 36.8028 10.0096 35.7501 10.0096C34.7076 10.0096 33.9322 10.5283 33.6036 11.3961H33.506V10.1123H32.0322V18ZM44.416 20.9579C45.6844 20.9579 46.4855 20.2954 46.9426 19.0527L50.2034 10.1277L48.5447 10.1123L46.5471 16.2335H46.465L44.4674 10.1123H42.8241L45.7101 18.1027L45.5201 18.6265C45.1298 19.6741 44.5804 19.7614 43.7382 19.5303L43.3684 20.7884C43.5533 20.8706 43.9539 20.9579 44.416 20.9579ZM56.9901 10.1123H55.3725V8.22254H53.8371V10.1123H52.6817V11.3448H53.8371V16.0024C53.832 17.4351 54.9258 18.1284 56.1377 18.1027C56.6255 18.0976 56.9542 18.0051 57.1339 17.9384L56.8566 16.67C56.7539 16.6905 56.5639 16.7367 56.3174 16.7367C55.8193 16.7367 55.3725 16.5724 55.3725 15.684V11.3448H56.9901V10.1123ZM57.604 18H59.1395V13.1832C59.1395 12.151 59.9354 11.4064 61.0241 11.4064C61.3425 11.4064 61.7019 11.4629 61.8252 11.4988V10.0301C61.6711 10.0096 61.3682 9.99419 61.173 9.99419C60.2487 9.99419 59.4579 10.518 59.1703 11.3653H59.0881V10.1123H57.604V18ZM64.2942 18.1746C65.5986 18.1746 66.3329 17.5122 66.6256 16.9216H66.6872V18H68.1867V12.7621C68.1867 10.4666 66.3791 10.0096 65.1261 10.0096C63.6985 10.0096 62.3839 10.5847 61.8704 12.0226L63.3134 12.3513C63.5393 11.7915 64.1145 11.2523 65.1467 11.2523C66.1378 11.2523 66.6461 11.771 66.6461 12.6645V12.7005C66.6461 13.2602 66.071 13.2499 64.6537 13.4142C63.1593 13.5888 61.629 13.9791 61.629 15.7713C61.629 17.3222 62.7947 18.1746 64.2942 18.1746ZM64.628 16.9421C63.7601 16.9421 63.1336 16.5519 63.1336 15.7919C63.1336 14.9702 63.8629 14.6775 64.7512 14.5594C65.2494 14.4926 66.4305 14.3591 66.6513 14.1383V15.1551C66.6513 16.0897 65.9067 16.9421 64.628 16.9421ZM75.6125 10.1123H73.9641L71.9716 16.1821H71.8895L69.8919 10.1123H68.2435L71.1089 18H72.7522L75.6125 10.1123ZM79.088 18.1592C80.8083 18.1592 82.0254 17.3119 82.3746 16.0281L80.9213 15.7662C80.644 16.5108 79.9764 16.8908 79.1034 16.8908C77.7888 16.8908 76.9055 16.0383 76.8645 14.5183H82.4721V13.974C82.4721 11.1239 80.7672 10.0096 78.9802 10.0096C76.7823 10.0096 75.3342 11.6837 75.3342 14.1075C75.3342 16.557 76.7618 18.1592 79.088 18.1592ZM76.8696 13.368C76.9312 12.2486 77.7426 11.278 78.9904 11.278C80.1818 11.278 80.9624 12.1613 80.9675 13.368H76.8696ZM84.6266 7.48307H83.0912V18H84.6266V7.48307ZM88.3502 10.1123V18.5033C88.3502 19.2325 88.0472 19.633 87.318 19.633H87.0715V20.9528C87.1793 20.9579 87.2769 20.9579 87.3847 20.9579C89.0177 20.9579 89.8856 20.0952 89.8856 18.5135V10.1123H88.3502ZM89.1102 8.89525C89.6391 8.89525 90.0807 8.48443 90.0807 7.98118C90.0807 7.47793 89.6391 7.06198 89.1102 7.06198C88.5761 7.06198 88.1396 7.47793 88.1396 7.98118C88.1396 8.48443 88.5761 8.89525 89.1102 8.89525ZM94.1892 18.1592C96.4127 18.1592 97.866 16.5313 97.866 14.0921C97.866 11.6375 96.4127 10.0096 94.1892 10.0096C91.9656 10.0096 90.5123 11.6375 90.5123 14.0921C90.5123 16.5313 91.9656 18.1592 94.1892 18.1592ZM94.1943 16.8703C92.741 16.8703 92.0632 15.6019 92.0632 14.087C92.0632 12.5772 92.741 11.2934 94.1943 11.2934C95.6373 11.2934 96.3151 12.5772 96.3151 14.087C96.3151 15.6019 95.6373 16.8703 94.1943 16.8703ZM103.492 14.7289C103.497 16.0692 102.501 16.7059 101.638 16.7059C100.688 16.7059 100.031 16.0178 100.031 14.9445V10.1123H98.4953V15.1294C98.4953 17.0859 99.5686 18.1027 101.083 18.1027C102.27 18.1027 103.076 17.4762 103.441 16.634H103.523V18H105.032V10.1123H103.492V14.7289ZM106.011 18H107.546V13.1832C107.546 12.151 108.342 11.4064 109.431 11.4064C109.749 11.4064 110.109 11.4629 110.232 11.4988V10.0301C110.078 10.0096 109.775 9.99419 109.58 9.99419C108.656 9.99419 107.865 10.518 107.577 11.3653H107.495V10.1123H106.011V18ZM112.012 13.3167C112.012 12.0585 112.782 11.3396 113.85 11.3396C114.893 11.3396 115.524 12.0226 115.524 13.1678V18H117.06V12.9829C117.06 11.0315 115.986 10.0096 114.374 10.0096C113.188 10.0096 112.412 10.5591 112.048 11.3961H111.95V10.1123H110.476V18H112.012V13.3167ZM120.33 18.1746C121.634 18.1746 122.368 17.5122 122.661 16.9216H122.723V18H124.222V12.7621C124.222 10.4666 122.415 10.0096 121.162 10.0096C119.734 10.0096 118.419 10.5847 117.906 12.0226L119.349 12.3513C119.575 11.7915 120.15 11.2523 121.182 11.2523C122.173 11.2523 122.682 11.771 122.682 12.6645V12.7005C122.682 13.2602 122.107 13.2499 120.689 13.4142C119.195 13.5888 117.665 13.9791 117.665 15.7713C117.665 17.3222 118.83 18.1746 120.33 18.1746ZM120.664 16.9421C119.796 16.9421 119.169 16.5519 119.169 15.7919C119.169 14.9702 119.898 14.6775 120.787 14.5594C121.285 14.4926 122.466 14.3591 122.687 14.1383V15.1551C122.687 16.0897 121.942 16.9421 120.664 16.9421ZM126.718 7.48307H125.183V18H126.718V7.48307ZM128.711 18.0976C129.271 18.0976 129.738 17.6405 129.738 17.0705C129.738 16.5108 129.271 16.0486 128.711 16.0486C128.146 16.0486 127.684 16.5108 127.684 17.0705C127.684 17.6405 128.146 18.0976 128.711 18.0976Z" fill="white"/>
<path fill-rule="evenodd" clip-rule="evenodd" d="M19.8649 17.2C19.7357 17.0799 19.6376 16.9553 19.6044 16.84C19.4739 16.383 19.646 15.0548 19.9048 14.6401C20.1628 14.2239 19.877 12.975 19.7926 12.7683C19.7058 12.5604 19.6767 12.2906 19.3805 12.3724C19.0826 12.4558 18.4132 12.4247 17.8078 12.3002C17.2008 12.1768 16.6723 11.5921 16.5514 10.9328C16.416 10.1937 16.416 9.47567 16.5888 9.02547C16.782 8.5194 17.2577 8.32783 17.6932 8.08917C17.8938 7.97981 18.8644 7.82496 18.8279 7.358C18.6023 6.92776 16.5418 7.41707 16.4592 6.74856C16.3756 6.07886 16.3461 5.74281 16.6075 5.20401C16.8817 4.64207 16.5664 4.7171 16.4907 4.03583C16.4804 3.93884 16.6952 3.6882 16.7122 3.6C17.4231 4.0043 18.0908 4.48762 18.6899 5.06313C20.5667 6.8667 21.6 9.26454 21.6 11.8152C21.6 13.7669 20.9905 15.6255 19.8649 17.2ZM15.4437 16.8971C15.034 17.5476 15.1325 18.0268 14.1978 18.5241C13.6772 18.8014 13.3068 18.88 13.0314 19.6248C12.7548 20.368 12.2962 20.3418 11.1513 20.9456C10.0047 21.5509 9.54928 20.9456 9.45589 20.4813C9.36289 20.017 9.64545 18.9203 9.64545 18.9203C9.64545 18.9203 9.75752 18.5927 8.94521 18.2227C6.89098 17.2872 8.66344 14.0029 8.66344 14.0029C8.19926 13.4596 7.02053 12.394 5.37484 12.045C3.80148 11.7121 3.3528 10.7887 2.8 9.867C3.20457 8.16055 4.05464 6.59235 5.30967 5.31877C7.10479 3.49786 9.49086 2.4 12.0315 2.4C12.0315 2.4 12.8883 2.4 13.6971 2.6124C12.9575 3.42653 12.1301 4.24952 11.5153 4.47643C10.4085 4.88752 9.89543 5.56099 9.89066 6.27839C9.88827 6.64999 10.6577 7.32345 10.6577 8.17547C10.6577 9.62356 9.59498 9.65702 9.47099 9.04682C9.19121 7.66281 8.12097 8.0203 6.83931 8.15894C5.55567 8.29879 4.77793 9.81017 5.60216 10.4147C6.42799 11.0193 6.38547 10.2237 6.703 9.99677C7.01894 9.76946 7.24229 9.67959 7.48233 9.99677C7.72038 10.314 8.23662 10.4865 8.18694 11.1374C8.14363 11.7879 8.00453 12.3448 8.87685 12.3448C9.74799 12.3448 9.77819 12.5391 10.331 12.8176C10.8782 13.0965 11.3965 13.0441 11.8531 13.1376C12.3117 13.2299 12.9126 14.1279 12.9126 14.1279C14.2125 14.5539 14.6401 14.728 14.999 15.0907C15.3567 15.4534 15.8582 16.2462 15.4437 16.8971ZM11.9986 0H11.9954H11.9922C7.23149 0 3.13019 2.7812 1.19038 6.8C0.430136 8.3748 8.94955e-08 10.1344 8.94955e-08 12C-0.000800164 18.6264 5.3653 24 11.9938 24H11.997H12.0002C18.6263 24 24.0008 18.6264 24 12.0016C24.0008 5.314 18.5467 0 11.9986 0Z" fill="white"/>
</svg>
